<svg width="32" height="33" viewBox="0 0 32 33" fill="none" xmlns="http://www.w3.org/2000/svg">
<g clip-path="url(#clip0_2679_1025)">
<circle cx="16" cy="17" r="16" fill="#34B3F2"/>
<path d="M12.166 23V9.7H17.581C18.9997 9.7 20.241 9.985 21.305 10.555C22.3817 11.1123 23.2177 11.8913 23.813 12.892C24.4083 13.8927 24.706 15.0453 24.706 16.35C24.706 17.6547 24.4083 18.8073 23.813 19.808C23.2177 20.8087 22.3817 21.594 21.305 22.164C20.241 22.7213 18.9997 23 17.581 23H12.166ZM13.572 21.784H17.505C18.683 21.784 19.7027 21.556 20.564 21.1C21.438 20.6313 22.1157 19.9917 22.597 19.181C23.0783 18.3577 23.319 17.414 23.319 16.35C23.319 15.2733 23.0783 14.3297 22.597 13.519C22.1157 12.7083 21.438 12.075 20.564 11.619C19.7027 11.1503 18.683 10.916 17.505 10.916H13.572V21.784Z" fill="white"/>
</g>
<defs>
<clipPath id="clip0_2679_1025">
<rect width="32" height="33" fill="white"/>
</clipPath>
</defs>
</svg>
